<svg width="21" height="21" viewBox="0 0 21 21" fill="none" xmlns="http://www.w3.org/2000/svg">
<path d="M10.3672 6.91173C8.46307 6.91173 6.90914 8.46566 6.90914 10.3698C6.90914 12.274 8.46307 13.8279 10.3672 13.8279C12.2714 13.8279 13.8253 12.274 13.8253 10.3698C13.8253 8.46566 12.2714 6.91173 10.3672 6.91173ZM20.7388 10.3698C20.7388 8.93781 20.7518 7.51878 20.6714 6.08937C20.591 4.42908 20.2122 2.95557 18.9981 1.74148C17.7815 0.524801 16.3105 0.148641 14.6502 0.0682209C13.2182 -0.0121994 11.7992 0.000771631 10.3698 0.000771631C8.93781 0.000771631 7.51878 -0.0121994 6.08937 0.0682209C4.42908 0.148641 2.95557 0.527395 1.74148 1.74148C0.524801 2.95816 0.148641 4.42908 0.0682209 6.08937C-0.0121994 7.52137 0.000771631 8.9404 0.000771631 10.3698C0.000771631 11.7992 -0.0121994 13.2208 0.0682209 14.6502C0.148641 16.3105 0.527395 17.784 1.74148 18.9981C2.95816 20.2148 4.42908 20.591 6.08937 20.6714C7.52137 20.7518 8.9404 20.7388 10.3698 20.7388C11.8018 20.7388 13.2208 20.7518 14.6502 20.6714C16.3105 20.591 17.784 20.2122 18.9981 18.9981C20.2148 17.7814 20.591 16.3105 20.6714 14.6502C20.7544 13.2208 20.7388 11.8018 20.7388 10.3698ZM10.3672 15.6905C7.42279 15.6905 5.0465 13.3142 5.0465 10.3698C5.0465 7.42538 7.42279 5.04909 10.3672 5.04909C13.3116 5.04909 15.6879 7.42538 15.6879 10.3698C15.6879 13.3142 13.3116 15.6905 10.3672 15.6905ZM15.9058 6.0738C15.2184 6.0738 14.6632 5.51864 14.6632 4.83118C14.6632 4.14372 15.2184 3.58856 15.9058 3.58856C16.5933 3.58856 17.1485 4.14372 17.1485 4.83118C17.1487 4.99442 17.1167 5.1561 17.0543 5.30695C16.9919 5.45781 16.9004 5.59488 16.785 5.7103C16.6695 5.82573 16.5325 5.91726 16.3816 5.97963C16.2308 6.04201 16.0691 6.07401 15.9058 6.0738Z" fill="#B8B8B8"/>
</svg>
