<svg width="22" height="22" viewBox="0 0 22 22" fill="none" xmlns="http://www.w3.org/2000/svg">
<path d="M11 0C8.82441 0 6.69767 0.645137 4.88873 1.85383C3.07979 3.06253 1.66989 4.78049 0.837331 6.79048C0.00476674 8.80047 -0.213071 11.0122 0.211367 13.146C0.635804 15.2798 1.68345 17.2398 3.22183 18.7782C4.76021 20.3165 6.72022 21.3642 8.85401 21.7886C10.9878 22.2131 13.1995 21.9952 15.2095 21.1627C17.2195 20.3301 18.9375 18.9202 20.1462 17.1113C21.3549 15.3023 22 13.1756 22 11C22 8.08262 20.8411 5.28472 18.7782 3.22182C16.7153 1.15892 13.9174 0 11 0ZM5.434 11.374L5.478 11.308L8.338 6.842C8.34763 6.82582 8.36176 6.81281 8.37866 6.80454C8.39557 6.79627 8.41452 6.79311 8.4332 6.79544C8.45187 6.79778 8.46946 6.80551 8.48381 6.81768C8.49817 6.82986 8.50866 6.84595 8.514 6.864C8.998 7.942 9.394 9.262 9.218 10.098C9.08848 10.5344 8.89577 10.9494 8.646 11.33C8.62262 11.396 8.58508 11.4561 8.536 11.506C8.52553 11.5194 8.5122 11.5303 8.49697 11.5379C8.48175 11.5455 8.46502 11.5497 8.448 11.55H5.5C5.48292 11.5443 5.46733 11.5348 5.45436 11.5223C5.4414 11.5098 5.43139 11.4946 5.42507 11.4777C5.41874 11.4609 5.41626 11.4428 5.41781 11.4248C5.41935 11.4069 5.42489 11.3895 5.434 11.374ZM18.172 12.914C18.172 12.958 18.15 12.98 18.106 13.002C17.886 13.09 17.116 13.442 16.808 13.882C15.994 15.004 15.378 16.61 14.014 16.61H8.272C7.78808 16.6086 7.30918 16.5118 6.86265 16.3253C6.41612 16.1388 6.0107 15.8661 5.66953 15.5229C5.32837 15.1797 5.05815 14.7727 4.87429 14.325C4.69044 13.8774 4.59656 13.3979 4.598 12.914V12.848C4.59955 12.8252 4.60932 12.8037 4.6255 12.7875C4.64168 12.7713 4.66317 12.7615 4.686 12.76H7.92C7.9485 12.762 7.97531 12.7743 7.99551 12.7945C8.01571 12.8147 8.02796 12.8415 8.03 12.87C8.01274 13.0814 8.05065 13.2936 8.14 13.486C8.23401 13.6732 8.37873 13.8302 8.55766 13.9391C8.7366 14.048 8.94254 14.1045 9.152 14.102H10.736V12.87H9.174C9.1556 12.8711 9.13726 12.867 9.12104 12.8582C9.10483 12.8494 9.0914 12.8363 9.08225 12.8203C9.0731 12.8043 9.06861 12.786 9.06927 12.7676C9.06993 12.7492 9.07573 12.7313 9.086 12.716C9.11318 12.6909 9.13555 12.6611 9.152 12.628C9.306 12.408 9.504 12.1 9.724 11.726C9.87778 11.4735 10.0102 11.2085 10.12 10.934C10.146 10.8845 10.168 10.833 10.186 10.78C10.208 10.692 10.252 10.604 10.274 10.538L10.34 10.34C10.3858 10.1008 10.4079 9.85758 10.406 9.614C10.4089 9.51085 10.4015 9.40768 10.384 9.306C10.384 9.196 10.362 9.086 10.362 8.976C10.3581 8.87931 10.3434 8.78337 10.318 8.69C10.2993 8.54141 10.2699 8.39436 10.23 8.25L10.208 8.206C10.1888 8.10784 10.1593 8.01197 10.12 7.92C10.0341 7.62107 9.93126 7.32726 9.812 7.04L9.68 6.71C9.614 6.556 9.548 6.402 9.482 6.27C9.46 6.204 9.416 6.16 9.394 6.094C9.372 6.028 9.328 5.962 9.306 5.896L9.24 5.764L9.042 5.412C9.02 5.368 9.064 5.302 9.108 5.324L10.318 5.654L10.472 5.698L10.648 5.742L10.714 5.764V5.038C10.7128 4.8722 10.7766 4.71254 10.8918 4.59326C11.0069 4.47398 11.1643 4.4046 11.33 4.4C11.4115 4.39788 11.4925 4.41237 11.5682 4.44257C11.6439 4.47278 11.7127 4.51808 11.7703 4.57571C11.8279 4.63334 11.8732 4.70209 11.9034 4.77778C11.9336 4.85348 11.9481 4.93453 11.946 5.016V6.072L12.078 6.116C12.0838 6.116 12.0894 6.11831 12.0936 6.12244C12.0977 6.12657 12.1 6.13216 12.1 6.138C12.1401 6.17909 12.1843 6.21595 12.232 6.248C12.2785 6.29733 12.3301 6.34158 12.386 6.38C12.496 6.468 12.65 6.6 12.804 6.732C12.848 6.776 12.892 6.798 12.914 6.842C13.1376 7.04349 13.3505 7.25645 13.552 7.48C13.618 7.546 13.662 7.612 13.728 7.678C13.794 7.744 13.838 7.832 13.904 7.898L14.124 8.184C14.158 8.2325 14.1875 8.28405 14.212 8.338C14.3 8.47 14.366 8.602 14.454 8.734C14.476 8.8 14.52 8.866 14.542 8.932C14.6333 9.10323 14.693 9.28956 14.718 9.482C14.7339 9.51641 14.7415 9.55411 14.74 9.592C14.7592 9.64856 14.7667 9.70844 14.762 9.76799C14.7767 9.95887 14.7693 10.1508 14.74 10.34C14.718 10.428 14.696 10.494 14.674 10.582C14.6509 10.6648 14.6215 10.7457 14.586 10.824C14.514 10.9824 14.4332 11.1366 14.344 11.286C14.3104 11.3465 14.2736 11.4052 14.234 11.462C14.1896 11.5154 14.1526 11.5746 14.124 11.638C14.08 11.704 14.014 11.77 13.97 11.836C13.9257 11.9072 13.8741 11.9735 13.816 12.034C13.75 12.122 13.662 12.21 13.596 12.298C13.5503 12.3547 13.4987 12.4063 13.442 12.452C13.3963 12.5087 13.3447 12.5603 13.288 12.606C13.2276 12.6707 13.1613 12.7296 13.09 12.782L12.958 12.892C12.9493 12.9003 12.9389 12.9066 12.9275 12.9104C12.9161 12.9142 12.9039 12.9154 12.892 12.914H11.924V14.146H13.134C13.4 14.1487 13.6579 14.0549 13.86 13.882C13.926 13.816 14.234 13.552 14.608 13.156C14.63 13.134 14.63 13.134 14.652 13.134L17.996 12.166C18.128 12.1 18.172 12.144 18.172 12.21V12.914Z" fill="#B8B8B8"/>
</svg>
