<svg width="24" height="20" viewBox="0 0 24 20" fill="none" xmlns="http://www.w3.org/2000/svg">
<path fill-rule="evenodd" clip-rule="evenodd" d="M7.13513 0L0 7.14006L12 19.1351L24 7.14006L16.8649 0H7.13513ZM6.48649 4.54052C9.51816 1.49554 14.4818 1.49552 17.5135 4.54051L20.1081 7.13515L17.5135 9.72974C14.4818 12.7747 9.51816 12.7747 6.48649 9.72976L3.89189 7.13515L6.48649 4.54052ZM8.27051 7.135C8.27051 9.19571 9.9412 10.8647 12.0002 10.8647C14.0593 10.8647 15.73 9.19571 15.73 7.135C15.73 5.0743 14.0593 3.40527 12.0002 3.40527C9.9412 3.40527 8.27051 5.0743 8.27051 7.135ZM12.0002 8.75662C11.105 8.75662 10.3786 8.03097 10.3786 7.135C10.3786 6.23904 11.105 5.51338 12.0002 5.51338C12.8955 5.51338 13.6219 6.23904 13.6219 7.135C13.6219 8.03097 12.8955 8.75662 12.0002 8.75662Z" fill="#B8B8B8"/>
</svg>
