<svg width="100" height="101" viewBox="0 0 100 101" fill="none" xmlns="http://www.w3.org/2000/svg">
<path fill-rule="evenodd" clip-rule="evenodd" d="M22.2215 8.92652C30.444 3.43245 40.111 0.5 50 0.5C63.2608 0.5 75.9785 5.76784 85.3553 15.1447C94.7322 24.5215 100 37.2392 100 50.5C100 60.3891 97.0676 70.056 91.5735 78.2785C86.0794 86.5009 78.2705 92.9096 69.1342 96.694C59.9979 100.478 49.9445 101.468 40.2455 99.5392C30.5465 97.61 21.6373 92.8479 14.6447 85.8553C7.65206 78.8627 2.89002 69.9536 0.960758 60.2545C-0.968502 50.5555 0.0216642 40.5021 3.80604 31.3658C7.59043 22.2295 13.999 14.4206 22.2215 8.92652ZM26.1899 86.1344C33.2377 90.8436 41.5237 93.3571 50 93.3571C61.3664 93.3571 72.2673 88.8418 80.3046 80.8046C88.3419 72.7673 92.8571 61.8664 92.8571 50.5C92.8571 42.0236 90.3436 33.7377 85.6344 26.6898C80.9252 19.642 74.2318 14.1489 66.4007 10.9052C58.5696 7.66141 49.9525 6.81269 41.639 8.46634C33.3255 10.12 25.6891 14.2017 19.6954 20.1954C13.7018 26.1891 9.62002 33.8255 7.96637 42.139C6.31271 50.4524 7.16143 59.0696 10.4052 66.9007C13.6489 74.7318 19.142 81.4252 26.1899 86.1344ZM25.0001 51.975L42.8572 69.8357L75.0001 37.6964L69.9465 32.6428L42.8572 59.7357L30.0465 46.9285L25.0001 51.975Z" fill="#5FE45C"/>
</svg>
