<svg width="24" height="20" viewBox="0 0 24 20" fill="none" xmlns="http://www.w3.org/2000/svg">
<path d="M20.2824 2.39173C18.7139 1.66967 17.0562 1.15961 15.353 0.875C15.1196 1.29542 14.9097 1.72849 14.7244 2.17221C12.9091 1.8921 11.0615 1.8921 9.24617 2.17221C9.05073 1.728 8.83086 1.29493 8.58759 0.875C6.8807 1.15429 5.22142 1.67156 3.6582 2.41169C0.870472 6.39016 -0.39064 11.2398 0.105845 16.0723C1.92928 17.4388 3.97978 18.4725 6.16281 19.1257C6.66003 18.4675 7.0975 17.7662 7.47 17.0302C6.77418 16.7627 6.10584 16.4285 5.47429 16.0324C5.64393 15.9027 5.79361 15.7729 5.97322 15.6432C7.86821 16.5401 9.93864 17.0054 12.0352 17.0054C14.1317 17.0054 16.2021 16.5401 18.0971 15.6432C18.2668 15.7729 18.4164 15.9027 18.596 16.0324C17.9438 16.429 17.2556 16.7631 16.5405 17.0302C16.9095 17.766 17.3436 18.4673 17.8377 19.1257C20.0213 18.4663 22.074 17.4332 23.9046 16.0723C24.3758 11.2254 23.0904 6.37042 20.2824 2.39173ZM7.9889 13.2783C7.50081 13.3308 7.00827 13.234 6.57641 13.0005C6.14456 12.7671 5.79372 12.4081 5.57031 11.9709C5.3469 11.5338 5.26145 11.0392 5.32523 10.5524C5.38901 10.0657 5.59903 9.60974 5.92751 9.24493C6.256 8.88012 6.68745 8.6236 7.16487 8.5093C7.64228 8.395 8.14315 8.4283 8.60123 8.6048C9.05931 8.7813 9.45303 9.09268 9.73033 9.49777C10.0076 9.90285 10.1554 10.3826 10.1542 10.8735C10.1704 11.1736 10.1271 11.4741 10.027 11.7575C9.92681 12.0409 9.77173 12.3018 9.57058 12.5252C9.36943 12.7486 9.12619 12.9301 8.85477 13.0594C8.58336 13.1886 8.28912 13.263 7.9889 13.2783ZM15.9717 13.2783C15.3847 13.2027 14.8453 12.9158 14.4545 12.4714C14.0636 12.0269 13.8481 11.4554 13.8481 10.8635C13.8481 10.2716 14.0636 9.70005 14.4545 9.25561C14.8453 8.81117 15.3847 8.52433 15.9717 8.4487C16.2734 8.46252 16.5691 8.53677 16.8415 8.66705C17.1139 8.79733 17.3574 8.98099 17.5575 9.20713C17.7576 9.43327 17.9102 9.6973 18.0063 9.98354C18.1024 10.2698 18.1401 10.5724 18.1171 10.8735C18.1332 11.1736 18.09 11.4741 17.9898 11.7575C17.8897 12.0409 17.7346 12.3018 17.5335 12.5252C17.3323 12.7486 17.089 12.9301 16.8176 13.0594C16.5462 13.1886 16.252 13.263 15.9517 13.2783H15.9717Z" fill="#B8B8B8"/>
</svg>
